<svg height="48" viewBox="0 0 48 48" width="48" xmlns="http://www.w3.org/2000/svg"><path d="m0 0h48v48h-48z" fill="none"/><path d="m26.4 2c-5.8 0-9.9 1-12.7 2.6a8.3 8.3 0 0 0 -4.3 5.3 4.9 4.9 0 0 0 -1.7 1.8c-.9 1.4-1.2 3.7-.4 7.2a5.5 5.5 0 0 0 -2.2 3.7 5.9 5.9 0 0 0 1.5 4.9 6.1 6.1 0 0 0 3.2 1.9c.4.1.4 0 .7 0a22.2 22.2 0 0 0 1.8 5l-4.7 2.7-3.5 2-1.2.8-.4.3-.2.2s-.2.1-.2.5v.7l1.7 4.4h38.7l.2-.8s.2-1.3.5-2.8a23.3 23.3 0 0 0 .4-4.1 1.2 1.2 0 0 0 -.2-.7l-.3-.3-.8-.6-2-1.3-2-1.2a15.2 15.2 0 0 0 2-3.6 29.2 29.2 0 0 0 1.8-13.4c-.4-5.6-2.3-9.5-5.2-11.9a15.4 15.4 0 0 0 -9.5-3.3zm.7 1.9a13.3 13.3 0 0 1 8.6 2.9 12 12 0 0 1 3.1 4.1l-1.1-.3h-2.8l.3 1.9a7 7 0 0 1 2.2 0 2.5 2.5 0 0 1 2.4 2.2h.1a9 9 0 0 1 .2 1.8 2 2 0 0 0 -.4-.8l-1-1.7-1.6.9a15.6 15.6 0 0 1 .9 1.7 4.1 4.1 0 0 1 .6 1.1 7 7 0 0 1 -2.3-.4l-.6 1.9a10.8 10.8 0 0 0 3 .4 2.8 2.8 0 0 0 1.3-.3h.3a26.8 26.8 0 0 1 -1.8 10.7 14.6 14.6 0 0 1 -2 3.6 7.4 7.4 0 0 1 -6.2 3c-4.5 0-8.6-2.1-9.9-3.5a7 7 0 0 1 -1.6-3.3l-1.9.3a8.4 8.4 0 0 0 2.1 4.1 11.8 11.8 0 0 0 2.7 2 2.2 2.2 0 0 0 -1.4.9.4.4 0 0 0 -.1.3 8.7 8.7 0 0 1 -4.6-1.6 5.2 5.2 0 0 1 -1.2-1.3v-.2a19.1 19.1 0 0 1 -1.9-5.1 5.2 5.2 0 0 0 1.5-1.9l-1.7-.9a4.8 4.8 0 0 1 -.8 1.2h-.3a1.6 1.6 0 0 1 -.9-.1 3.7 3.7 0 0 1 -2.3-1.3 4.3 4.3 0 0 1 -1-3.4 3.5 3.5 0 0 1 1.7-2.7 3.1 3.1 0 0 1 2.1-.6 1.2 1.2 0 0 1 .8.6 6.6 6.6 0 0 1 .5 2v1.5l3.8-1.9v-.6a7.6 7.6 0 0 0 -.5-2.3 4.1 4.1 0 0 1 .3-2.8 21.3 21.3 0 0 0 1.1-3.3 3.7 3.7 0 0 0 -.4-2.7 8.8 8.8 0 0 1 1.9-2.6 12.2 12.2 0 0 1 8.8-3.5zm-8.7.9-1.5 1.3a10.7 10.7 0 0 0 -2 2.6 29.8 29.8 0 0 0 -3.4.6 7 7 0 0 1 3.1-3.1 20.4 20.4 0 0 1 3.8-1.4zm5.4 5.6a4.9 4.9 0 0 0 -3.7 1.5 6 6 0 0 0 -1.3 2.3l1.9.4a2.7 2.7 0 0 1 .8-1.4c.6-.6 1.6-1.2 3.8-.7l.4-1.9zm-9.3.3a1.7 1.7 0 0 1 .5 1.6c-.1.6-.7 1.8-1.1 3a5.8 5.8 0 0 0 -.3 4.1 9 9 0 0 1 .3 1.2h-.2a4.4 4.4 0 0 0 -.5-1.5 3 3 0 0 0 -2-1.6 4.9 4.9 0 0 0 -2.3.3c-.5-2.8-.1-4.4.4-5.3l.8-.9a24.6 24.6 0 0 1 4.4-.9zm12.8 3.4-1.8.7.7 1.8a14.7 14.7 0 0 0 1 2.2 5.2 5.2 0 0 1 -2.3-.5l-.8 1.8a6.4 6.4 0 0 0 3.6.6 1.8 1.8 0 0 0 1.3-.8 1.5 1.5 0 0 0 0-1.7 13.8 13.8 0 0 1 -1-2.3zm5.8 1.3h-1.9a9.6 9.6 0 0 0 3.2 6.4 11.7 11.7 0 0 1 2 2.2h-.1a7.2 7.2 0 0 1 -2.2 1.1 9.3 9.3 0 0 1 -2.9.6h-.2a4.3 4.3 0 0 1 .1-.5l-1.7-.7a3.3 3.3 0 0 0 -.3 1.3 2.4 2.4 0 0 0 .5 1.3 2.3 2.3 0 0 0 1.6.6 9.1 9.1 0 0 0 3.5-.7 8.7 8.7 0 0 0 2.9-1.4 2.1 2.1 0 0 0 .7-1.1 1.7 1.7 0 0 0 -.1-1.4 11.3 11.3 0 0 0 -2.5-2.8 7.6 7.6 0 0 1 -2.6-4.9zm-23.5 5.9a4.1 4.1 0 0 0 -1.3 3.8l1.9-.3a1.9 1.9 0 0 1 .6-2zm17.4 5.8-1.2 1.5a10.7 10.7 0 0 0 7.5 2.1l-.3-1.9a8.3 8.3 0 0 1 -6-1.7zm10.2.1a6.1 6.1 0 0 1 -3.2 1.6l.2 1.9a7.2 7.2 0 0 0 4.4-2.2zm-10.8 3.2-1.9.6a4.3 4.3 0 0 0 2.2 2.4 7.4 7.4 0 0 0 2.9.5 12.4 12.4 0 0 0 3.7-.4l-.4-1.8a12 12 0 0 1 -3.2.3 5.1 5.1 0 0 1 -2.2-.4 1.9 1.9 0 0 1 -1.1-1.2zm10.6 5.3 2.3 1.3 1.9 1.3.5.3c0 .5-.2 2.1-.4 3.5l-.4 2h-3.5a2.3 2.3 0 0 0 1.1-1.3 12.4 12.4 0 0 0 .4-1.6 27.8 27.8 0 0 0 0-2.9 3.6 3.6 0 0 0 -1.6-2.3h-.3zm-23.9.4a11.3 11.3 0 0 0 1.7 2.7 16.4 16.4 0 0 0 5 4c.1.4.1.7.2 1.1a.3.3 0 0 1 .1.2h-15l-1.1-2.6a5.2 5.2 0 0 1 1.1-.7l3.4-2.1zm22.4 1.3.9.2a1.2 1.2 0 0 1 .6.9 18.9 18.9 0 0 1 0 2.4 2.5 2.5 0 0 1 -.2 1c-.1.3-.2.4-.3.4a5.1 5.1 0 0 1 -2.5.2l-1.5-.3h-3.6l-2.3.9a15.3 15.3 0 0 1 -4 .9h-.5c0-.1-.1-.2-.2-.6a19.6 19.6 0 0 1 -.2-4 1.7 1.7 0 0 1 .1-1.1l.7-.3a5.5 5.5 0 0 1 2.8.7l3.8 1.7h1.5l.3-.3 2.3-1.6 1.3-.7.6-.2h.1c0-.2.1-.2.3-.2zm-17.9 1.4a7.8 7.8 0 0 0 2.2.4v.3 1a15.3 15.3 0 0 1 -2.2-1.7z"/></svg>